<?xml version="1.0" standalone="no"?>
<!DOCTYPE svg PUBLIC "-//W3C//DTD SVG 20010904//EN"
 "http://www.w3.org/TR/2001/REC-SVG-20010904/DTD/svg10.dtd">
<svg version="1.0" xmlns="http://www.w3.org/2000/svg"
 width="870.000000pt" height="870.000000pt" viewBox="0 0 870.000000 870.000000"
 preserveAspectRatio="xMidYMid meet">
<metadata>
Created by potrace 1.14, written by Peter Selinger 2001-2017
</metadata>
<g transform="translate(0.000000,870.000000) scale(0.100000,-0.100000)"
fill="#000000" stroke="none">
<path d="M1605 7858 c-114 -8 -133 -12 -222 -49 -96 -41 -182 -99 -249 -171
-70 -76 -73 -83 -128 -273 -26 -88 -51 -171 -56 -185 -5 -14 -34 -106 -65
-205 -31 -99 -60 -189 -65 -200 -5 -11 -23 -63 -40 -115 -38 -114 -134 -367
-161 -426 -10 -24 -19 -46 -19 -49 0 -19 -139 -289 -175 -342 l-43 -61 27 -5
c14 -3 89 -5 166 -5 123 0 191 5 293 22 15 3 41 8 58 10 17 3 71 18 120 32 49
14 97 29 108 32 16 4 17 1 11 -29 -23 -104 -124 -395 -197 -569 -48 -112 -191
-402 -236 -478 -18 -29 -32 -55 -32 -57 0 -6 -86 -143 -166 -265 -98 -152
-156 -274 -189 -402 -23 -86 -24 -93 -32 -173 -23 -236 19 -441 140 -695 45
-94 169 -290 189 -298 4 -2 8 -8 8 -14 0 -6 14 -27 30 -48 16 -21 30 -42 30
-48 0 -6 4 -12 8 -14 7 -2 266 -389 331 -493 11 -16 50 -79 88 -140 168 -267
313 -524 447 -790 61 -121 119 -238 128 -260 10 -22 24 -56 32 -75 31 -76 139
-196 250 -279 246 -186 588 -246 996 -176 47 8 108 21 135 28 50 12 50 12 93
99 92 188 123 439 77 628 -5 18 15 3 82 -63 170 -168 354 -278 585 -351 43
-14 97 -28 120 -31 23 -4 46 -9 49 -11 26 -15 284 -23 394 -12 325 35 662 202
874 434 l53 58 -7 -40 c-4 -21 -8 -50 -10 -64 -7 -43 -6 -193 1 -250 13 -106
66 -260 128 -371 14 -24 197 -62 361 -75 450 -37 782 88 1015 381 27 35 50 66
50 69 0 20 203 436 288 591 100 183 213 373 371 627 76 123 359 547 494 742
144 206 240 423 278 621 14 74 18 290 7 366 -26 177 -91 332 -238 559 -179
278 -305 516 -423 796 -92 219 -207 574 -186 574 5 0 38 -9 72 -21 34 -12 69
-23 77 -24 30 -7 166 -34 200 -41 43 -8 398 -14 416 -7 9 3 -1 25 -31 73 -44
66 -117 211 -163 320 -13 30 -28 64 -32 75 -84 192 -294 814 -406 1205 -33
115 -73 171 -185 262 -108 87 -255 142 -399 148 -142 6 -1785 2 -1890 -5 -368
-24 -634 -114 -837 -280 l-31 -26 -62 49 c-66 54 -187 121 -284 157 -79 30
-255 72 -331 80 -33 4 -62 8 -65 10 -26 16 -1826 28 -2025 13z"/>
</g>
</svg>
